<svg width="15" height="15" viewBox="0 0 15 15" fill="none" xmlns="http://www.w3.org/2000/svg">
<path d="M2.25241 2.8164C0.750584 4.3182 0.750584 6.76177 2.25238 8.26357L3.05007 7.46589C1.98816 6.40398 1.98814 4.6761 3.0501 3.61414C4.11203 2.55221 5.83992 2.55221 6.90185 3.61411L7.69953 2.81643C6.19776 1.3146 3.75418 1.31463 2.25241 2.8164Z" fill="#6E9C9F"/>
<path d="M3.84127 4.39118C3.2091 5.02334 3.20907 6.052 3.84124 6.6842L4.63895 5.88651C4.54578 5.79334 4.49446 5.66946 4.49446 5.5377C4.49446 5.40597 4.54581 5.28209 4.63898 5.18892C4.73215 5.09574 4.85603 5.04443 4.98776 5.04443C5.11952 5.04443 5.24343 5.09574 5.33658 5.18892L6.13426 4.3912C5.50209 3.75901 4.47344 3.75901 3.84127 4.39118Z" fill="#6E9C9F"/>
<path d="M13.7483 2.43512L11.8551 0.548462L7.92337 4.47365L9.44758 6.04779C9.19214 6.50124 8.6379 7.36988 7.69334 8.31445C6.74865 9.25916 5.87366 9.81969 5.41587 10.0792L3.87261 8.55561L0.0022583 12.4029L1.8851 14.2983C2.60485 15.0181 3.69998 15.2046 4.6102 14.7625C5.99921 14.0879 8.09546 12.8431 10.1943 10.7443C12.2931 8.64551 13.5379 6.54922 14.2125 5.16021C14.3723 4.83107 14.45 4.47786 14.45 4.1269C14.45 3.50718 14.2078 2.89463 13.7483 2.43512ZM13.1977 4.66731C12.5609 5.97844 11.3845 7.95864 9.39661 9.94657C7.40868 11.9345 5.42849 13.1109 4.11735 13.7477C3.63935 13.9799 3.06287 13.8806 2.6842 13.5019L1.59746 12.4079L3.87543 10.1436L5.19015 11.4415L5.5419 11.2849C5.59905 11.2595 6.95947 10.6438 8.49116 9.11213C10.0239 7.57946 10.6267 6.23053 10.6515 6.17385L10.8041 5.82682L9.50677 4.48703L11.8559 2.14177L12.9512 3.23325C13.3307 3.61328 13.4298 4.18951 13.1977 4.66731Z" fill="#6E9C9F"/>
</svg>
