<svg width="57" height="57" viewBox="0 0 57 57" fill="none" xmlns="http://www.w3.org/2000/svg">
<path d="M20.7773 40.7903C20.4413 40.7903 20.1053 40.6616 19.8481 40.407L2.21597 22.7723C0.168469 20.7248 0.168469 17.3936 2.21597 15.3461C4.26872 13.2986 7.59722 13.3039 9.63947 15.3461L25.4183 31.125C25.9302 31.6369 25.9302 32.469 25.4183 32.9809C24.9065 33.4928 24.0743 33.4928 23.5625 32.9809L7.78359 17.202C6.76509 16.1835 5.10084 16.1809 4.07184 17.202C3.57834 17.6981 3.30272 18.357 3.30272 19.0579C3.30272 19.7614 3.57572 20.4203 4.07184 20.9164L21.7066 38.5485C22.2185 39.0604 22.2185 39.8925 21.7066 40.4044C21.4493 40.6616 21.1133 40.7903 20.7773 40.7903Z" fill="black"/>
<path d="M30.0594 27.7965C29.7234 27.7965 29.3874 27.6679 29.1301 27.4133L11.498 9.77852C10.4716 8.75214 8.80999 8.75214 7.78362 9.77852C7.29012 10.2746 7.01449 10.9335 7.01449 11.6344C7.01449 12.3353 7.28749 12.9941 7.78362 13.4903L9.63949 15.3461C10.1514 15.858 10.1514 16.6901 9.63949 17.202C9.12762 17.7139 8.29549 17.7139 7.78362 17.202L5.92775 15.3461C4.9355 14.3539 4.3895 13.0361 4.3895 11.6344C4.3895 10.2326 4.9355 8.91489 5.92775 7.92264C7.90962 5.94077 11.3667 5.93552 13.3539 7.92264L30.986 25.5574C31.4979 26.0693 31.4979 26.9014 30.986 27.4133C30.7287 27.6705 30.3954 27.7965 30.0594 27.7965Z" fill="black"/>
<path d="M35.6296 22.2289C35.2936 22.2289 34.9576 22.1003 34.7004 21.8456L20.7774 7.92264C19.751 6.89627 18.092 6.89627 17.0656 7.92264C16.0419 8.94639 16.0419 10.6106 17.0656 11.6344C17.5775 12.1463 17.5775 12.9784 17.0656 13.4903C16.5537 14.0021 15.7216 14.0021 15.2097 13.4903C13.1649 11.4454 13.1649 8.11164 15.2097 6.06677C17.2546 4.02189 20.5884 4.02189 22.6332 6.06677L36.5562 19.9898C37.0681 20.5016 37.0681 21.3338 36.5562 21.8456C36.3016 22.1003 35.9656 22.2289 35.6296 22.2289Z" fill="black"/>
<path d="M34.1963 56.4667C33.3117 56.4667 32.4166 56.367 31.5293 56.1649L9.42684 51.0986C8.47134 50.8991 7.58146 50.4109 6.85696 49.6864C5.86471 48.6941 5.31609 47.3737 5.31609 45.9746C5.31609 44.5729 5.86471 43.2551 6.85696 42.2629C7.53946 41.5804 8.36896 41.1105 9.26409 40.8926C9.29034 40.8821 9.31659 40.8769 9.34284 40.869L20.4728 38.1994C21.179 38.0235 21.8877 38.4671 22.0557 39.1706C22.2237 39.8767 21.788 40.5829 21.0845 40.7535L10.0306 43.4047C9.99646 43.4152 9.96234 43.4257 9.92559 43.4336C9.48459 43.5307 9.06459 43.7696 8.71284 44.1214C8.21671 44.6175 7.94109 45.2764 7.94109 45.9772C7.94109 46.6781 8.21409 47.337 8.71284 47.8331C9.06196 48.1822 9.49509 48.429 9.93084 48.5261C9.94921 48.5287 9.96496 48.5314 9.98071 48.5366L32.1173 53.6107C35.2227 54.3221 38.4173 53.4034 40.667 51.1511L51.4085 40.407C53.1436 38.6719 54.0991 36.3645 54.0991 33.9101C54.0991 31.4557 53.1436 29.151 51.4085 27.4132L28.2061 4.21085C27.1797 3.18448 25.5207 3.18448 24.4943 4.21085C23.4706 5.2346 23.4706 6.89885 24.4943 7.9226C25.0062 8.43448 25.0062 9.2666 24.4943 9.77848C23.9825 10.2904 23.1503 10.2904 22.6385 9.77848C20.5936 7.7336 20.5936 4.39985 22.6385 2.35498C24.6833 0.310101 28.0171 0.310101 30.062 2.35498L53.2643 25.5574C55.4982 27.7886 56.7241 30.7522 56.7241 33.9101C56.7241 37.068 55.4956 40.0316 53.2643 42.2629L42.5228 53.007C40.2706 55.2514 37.2886 56.4667 34.1963 56.4667Z" fill="black"/>
</svg>
